<svg width="87" height="24" viewBox="0 0 87 24" fill="none" xmlns="http://www.w3.org/2000/svg">
<path d="M41.968 16.696V18H35.464V6.536H37.008V16.696H41.968ZM46.1846 9.768C46.7766 9.768 47.31 9.86667 47.7846 10.064C48.2593 10.2613 48.6646 10.5413 49.0006 10.904C49.3366 11.2667 49.5926 11.7067 49.7686 12.224C49.95 12.736 50.0406 13.3093 50.0406 13.944C50.0406 14.584 49.95 15.16 49.7686 15.672C49.5926 16.184 49.3366 16.6213 49.0006 16.984C48.6646 17.3467 48.2593 17.6267 47.7846 17.824C47.31 18.016 46.7766 18.112 46.1846 18.112C45.5873 18.112 45.0486 18.016 44.5686 17.824C44.094 17.6267 43.6886 17.3467 43.3526 16.984C43.0166 16.6213 42.758 16.184 42.5766 15.672C42.4006 15.16 42.3126 14.584 42.3126 13.944C42.3126 13.3093 42.4006 12.736 42.5766 12.224C42.758 11.7067 43.0166 11.2667 43.3526 10.904C43.6886 10.5413 44.094 10.2613 44.5686 10.064C45.0486 9.86667 45.5873 9.768 46.1846 9.768ZM46.1846 17C46.9846 17 47.582 16.7333 47.9766 16.2C48.3713 15.6613 48.5686 14.912 48.5686 13.952C48.5686 12.9867 48.3713 12.2347 47.9766 11.696C47.582 11.1573 46.9846 10.888 46.1846 10.888C45.7793 10.888 45.4246 10.9573 45.1206 11.096C44.822 11.2347 44.5713 11.4347 44.3686 11.696C44.1713 11.9573 44.022 12.28 43.9206 12.664C43.8246 13.0427 43.7766 13.472 43.7766 13.952C43.7766 14.912 43.974 15.6613 44.3686 16.2C44.7686 16.7333 45.374 17 46.1846 17ZM54.6239 14.04C54.9119 14.04 55.1652 14 55.3839 13.92C55.6025 13.84 55.7865 13.728 55.9359 13.584C56.0852 13.44 56.1972 13.2693 56.2719 13.072C56.3465 12.8693 56.3839 12.648 56.3839 12.408C56.3839 11.912 56.2319 11.5173 55.9279 11.224C55.6292 10.9307 55.1945 10.784 54.6239 10.784C54.0479 10.784 53.6079 10.9307 53.3039 11.224C53.0052 11.5173 52.8559 11.912 52.8559 12.408C52.8559 12.648 52.8932 12.8693 52.9679 13.072C53.0479 13.2693 53.1625 13.44 53.3119 13.584C53.4612 13.728 53.6452 13.84 53.8639 13.92C54.0825 14 54.3359 14.04 54.6239 14.04ZM57.1919 18.44C57.1919 18.2427 57.1359 18.0827 57.0239 17.96C56.9119 17.8373 56.7599 17.7413 56.5679 17.672C56.3812 17.6027 56.1625 17.5547 55.9119 17.528C55.6612 17.496 55.3945 17.472 55.1119 17.456C54.8345 17.44 54.5519 17.424 54.2639 17.408C53.9759 17.392 53.6985 17.3653 53.4319 17.328C53.1332 17.4667 52.8879 17.6427 52.6959 17.856C52.5092 18.064 52.4159 18.3093 52.4159 18.592C52.4159 18.7733 52.4612 18.9413 52.5519 19.096C52.6479 19.256 52.7919 19.392 52.9839 19.504C53.1759 19.6213 53.4159 19.712 53.7039 19.776C53.9972 19.8453 54.3412 19.88 54.7359 19.88C55.1199 19.88 55.4639 19.8453 55.7679 19.776C56.0719 19.7067 56.3279 19.608 56.5359 19.48C56.7492 19.352 56.9119 19.2 57.0239 19.024C57.1359 18.848 57.1919 18.6533 57.1919 18.44ZM58.6399 10.216V10.744C58.6399 10.92 58.5279 11.032 58.3039 11.08L57.3839 11.2C57.5652 11.552 57.6559 11.9413 57.6559 12.368C57.6559 12.7627 57.5785 13.1227 57.4239 13.448C57.2745 13.768 57.0665 14.0427 56.7999 14.272C56.5332 14.5013 56.2132 14.6773 55.8399 14.8C55.4665 14.9227 55.0612 14.984 54.6239 14.984C54.2452 14.984 53.8879 14.9387 53.5519 14.848C53.3812 14.9547 53.2505 15.0693 53.1599 15.192C53.0692 15.3093 53.0239 15.4293 53.0239 15.552C53.0239 15.744 53.1012 15.8907 53.2559 15.992C53.4159 16.088 53.6239 16.1573 53.8799 16.2C54.1359 16.2427 54.4265 16.2693 54.7519 16.28C55.0825 16.2907 55.4185 16.3093 55.7599 16.336C56.1065 16.3573 56.4425 16.3973 56.7679 16.456C57.0985 16.5147 57.3919 16.6107 57.6479 16.744C57.9039 16.8773 58.1092 17.0613 58.2639 17.296C58.4239 17.5307 58.5039 17.8347 58.5039 18.208C58.5039 18.5547 58.4159 18.8907 58.2399 19.216C58.0692 19.5413 57.8212 19.8293 57.4959 20.08C57.1705 20.336 56.7705 20.5387 56.2959 20.688C55.8265 20.8427 55.2959 20.92 54.7039 20.92C54.1119 20.92 53.5945 20.8613 53.1519 20.744C52.7092 20.6267 52.3412 20.4693 52.0479 20.272C51.7545 20.0747 51.5332 19.8453 51.3839 19.584C51.2399 19.328 51.1679 19.0587 51.1679 18.776C51.1679 18.376 51.2932 18.0373 51.5439 17.76C51.7945 17.4827 52.1385 17.2613 52.5759 17.096C52.3359 16.9893 52.1439 16.848 51.9999 16.672C51.8612 16.4907 51.7919 16.248 51.7919 15.944C51.7919 15.8267 51.8132 15.7067 51.8559 15.584C51.8985 15.456 51.9625 15.3307 52.0479 15.208C52.1385 15.08 52.2479 14.96 52.3759 14.848C52.5039 14.736 52.6532 14.6373 52.8239 14.552C52.4239 14.328 52.1119 14.032 51.8879 13.664C51.6639 13.2907 51.5519 12.8587 51.5519 12.368C51.5519 11.9733 51.6265 11.616 51.7759 11.296C51.9305 10.9707 52.1439 10.696 52.4159 10.472C52.6879 10.2427 53.0105 10.0667 53.3839 9.944C53.7625 9.82133 54.1759 9.76 54.6239 9.76C54.9759 9.76 55.3039 9.8 55.6079 9.88C55.9119 9.95467 56.1892 10.0667 56.4399 10.216H58.6399ZM67.6221 9.768C68.2141 9.768 68.7475 9.86667 69.2221 10.064C69.6968 10.2613 70.1021 10.5413 70.4381 10.904C70.7741 11.2667 71.0301 11.7067 71.2061 12.224C71.3875 12.736 71.4781 13.3093 71.4781 13.944C71.4781 14.584 71.3875 15.16 71.2061 15.672C71.0301 16.184 70.7741 16.6213 70.4381 16.984C70.1021 17.3467 69.6968 17.6267 69.2221 17.824C68.7475 18.016 68.2141 18.112 67.6221 18.112C67.0248 18.112 66.4861 18.016 66.0061 17.824C65.5315 17.6267 65.1261 17.3467 64.7901 16.984C64.4541 16.6213 64.1955 16.184 64.0141 15.672C63.8381 15.16 63.7501 14.584 63.7501 13.944C63.7501 13.3093 63.8381 12.736 64.0141 12.224C64.1955 11.7067 64.4541 11.2667 64.7901 10.904C65.1261 10.5413 65.5315 10.2613 66.0061 10.064C66.4861 9.86667 67.0248 9.768 67.6221 9.768ZM67.6221 17C68.4221 17 69.0195 16.7333 69.4141 16.2C69.8088 15.6613 70.0061 14.912 70.0061 13.952C70.0061 12.9867 69.8088 12.2347 69.4141 11.696C69.0195 11.1573 68.4221 10.888 67.6221 10.888C67.2168 10.888 66.8621 10.9573 66.5581 11.096C66.2595 11.2347 66.0088 11.4347 65.8061 11.696C65.6088 11.9573 65.4595 12.28 65.3581 12.664C65.2621 13.0427 65.2141 13.472 65.2141 13.952C65.2141 14.912 65.4115 15.6613 65.8061 16.2C66.2061 16.7333 66.8115 17 67.6221 17ZM79.9483 9.896V18H79.1003C78.8976 18 78.7696 17.9013 78.7163 17.704L78.6043 16.832C78.2523 17.2213 77.8576 17.536 77.4203 17.776C76.9829 18.0107 76.4816 18.128 75.9163 18.128C75.4736 18.128 75.0816 18.056 74.7403 17.912C74.4043 17.7627 74.1216 17.5547 73.8923 17.288C73.6629 17.0213 73.4896 16.6987 73.3723 16.32C73.2603 15.9413 73.2043 15.5227 73.2043 15.064V9.896H74.6283V15.064C74.6283 15.6773 74.7669 16.152 75.0443 16.488C75.3269 16.824 75.7563 16.992 76.3323 16.992C76.7536 16.992 77.1456 16.8933 77.5083 16.696C77.8763 16.4933 78.2149 16.216 78.5243 15.864V9.896H79.9483ZM84.6941 18.128C84.0541 18.128 83.5608 17.9493 83.2141 17.592C82.8728 17.2347 82.7021 16.72 82.7021 16.048V11.088H81.7261C81.6408 11.088 81.5688 11.064 81.5101 11.016C81.4515 10.9627 81.4221 10.8827 81.4221 10.776V10.208L82.7501 10.04L83.0781 7.536C83.0941 7.456 83.1288 7.392 83.1821 7.344C83.2408 7.29067 83.3155 7.264 83.4061 7.264H84.1261V10.056H86.4701V11.088H84.1261V15.952C84.1261 16.2933 84.2088 16.5467 84.3741 16.712C84.5395 16.8773 84.7528 16.96 85.0141 16.96C85.1635 16.96 85.2915 16.9413 85.3981 16.904C85.5101 16.8613 85.6061 16.816 85.6861 16.768C85.7661 16.72 85.8328 16.6773 85.8861 16.64C85.9448 16.5973 85.9955 16.576 86.0381 16.576C86.1128 16.576 86.1795 16.6213 86.2381 16.712L86.6541 17.392C86.4088 17.6213 86.1128 17.8027 85.7661 17.936C85.4195 18.064 85.0621 18.128 84.6941 18.128Z" fill="#FF4949"/>
<path d="M15.24 22.27H15.11C10.67 22.27 8.53002 20.52 8.16002 16.6C8.12002 16.19 8.42002 15.82 8.84002 15.78C9.24002 15.74 9.62002 16.05 9.66002 16.46C9.95002 19.6 11.43 20.77 15.12 20.77H15.25C19.32 20.77 20.76 19.33 20.76 15.26V8.73998C20.76 4.66998 19.32 3.22998 15.25 3.22998H15.12C11.41 3.22998 9.93002 4.41998 9.66002 7.61998C9.61002 8.02998 9.26002 8.33998 8.84002 8.29998C8.42002 8.26998 8.12001 7.89998 8.15001 7.48998C8.49001 3.50998 10.64 1.72998 15.11 1.72998H15.24C20.15 1.72998 22.25 3.82998 22.25 8.73998V15.26C22.25 20.17 20.15 22.27 15.24 22.27Z" fill="#FF4949"/>
<path d="M15.0001 12.75H3.62012C3.21012 12.75 2.87012 12.41 2.87012 12C2.87012 11.59 3.21012 11.25 3.62012 11.25H15.0001C15.4101 11.25 15.7501 11.59 15.7501 12C15.7501 12.41 15.4101 12.75 15.0001 12.75Z" fill="#FF4949"/>
<path d="M5.84994 16.1001C5.65994 16.1001 5.46994 16.0301 5.31994 15.8801L1.96994 12.5301C1.67994 12.2401 1.67994 11.7601 1.96994 11.4701L5.31994 8.12009C5.60994 7.83009 6.08994 7.83009 6.37994 8.12009C6.66994 8.41009 6.66994 8.89009 6.37994 9.18009L3.55994 12.0001L6.37994 14.8201C6.66994 15.1101 6.66994 15.5901 6.37994 15.8801C6.23994 16.0301 6.03994 16.1001 5.84994 16.1001Z" fill="#FF4949"/>
</svg>
