<svg width="24" height="24" viewBox="0 0 24 24" fill="none" xmlns="http://www.w3.org/2000/svg">
<path d="M11.9403 22.75C6.72636 22.75 2.48755 18.49 2.48755 13.25C2.48755 8.01 6.72636 3.75 11.9403 3.75C17.1542 3.75 21.393 8.01 21.393 13.25C21.393 18.49 17.1542 22.75 11.9403 22.75ZM11.9403 5.25C7.55223 5.25 3.98009 8.84 3.98009 13.25C3.98009 17.66 7.55223 21.25 11.9403 21.25C16.3284 21.25 19.9005 17.66 19.9005 13.25C19.9005 8.84 16.3284 5.25 11.9403 5.25Z" fill="#5F33E1"/>
<path d="M11.9404 13.75C11.5324 13.75 11.1941 13.41 11.1941 13V8C11.1941 7.59 11.5324 7.25 11.9404 7.25C12.3483 7.25 12.6866 7.59 12.6866 8V13C12.6866 13.41 12.3483 13.75 11.9404 13.75Z" fill="#5F33E1"/>
<path d="M14.9254 2.75H8.95525C8.54729 2.75 8.20898 2.41 8.20898 2C8.20898 1.59 8.54729 1.25 8.95525 1.25H14.9254C15.3334 1.25 15.6717 1.59 15.6717 2C15.6717 2.41 15.3334 2.75 14.9254 2.75Z" fill="#5F33E1" fill-opacity="0.87"/>
</svg>
